<?xml version="1.0" encoding="UTF-8"?>
<svg xmlns="http://www.w3.org/2000/svg" xmlns:xlink="http://www.w3.org/1999/xlink" width="151pt" height="40pt" viewBox="0 0 151 40" version="1.1">
<g id="surface1">
<path style=" stroke:none;fill-rule:nonzero;fill:rgb(30.980392%,68.235294%,86.27451%);fill-opacity:1;" d="M 17.027344 6.332031 C 17.59375 6.847656 18.191406 7.335938 18.820312 7.796875 C 19.585938 7.710938 20.359375 7.566406 21.125 7.394531 C 21.097656 7.308594 21.070312 7.191406 21.039062 7.109375 C 20.042969 6.503906 19.078125 5.816406 18.167969 5.101562 C 17.792969 5.53125 17.425781 5.929688 17.027344 6.332031 Z M 17.027344 6.332031 "/>
<path style=" stroke:none;fill-rule:nonzero;fill:rgb(89.019608%,29.019608%,23.137255%);fill-opacity:1;" d="M 9.367188 25.785156 C 8.628906 25.414062 7.855469 25.066406 7.089844 24.78125 C 6.746094 25.667969 6.320312 26.558594 5.863281 27.390625 C 7.003906 26.761719 8.171875 26.214844 9.367188 25.785156 Z M 9.367188 25.785156 "/>
<path style=" stroke:none;fill-rule:nonzero;fill:rgb(30.980392%,68.235294%,86.27451%);fill-opacity:1;" d="M 20.753906 5.988281 C 20.5 4.695312 20.359375 3.347656 20.328125 2.003906 C 19.816406 2.863281 19.273438 3.691406 18.648438 4.46875 C 19.332031 4.984375 20.042969 5.503906 20.753906 5.988281 Z M 20.753906 5.988281 "/>
<path style=" stroke:none;fill-rule:nonzero;fill:rgb(89.019608%,29.019608%,23.137255%);fill-opacity:1;" d="M 10.621094 25.382812 C 10.703125 25.351562 10.792969 25.324219 10.878906 25.324219 C 10.648438 24.605469 10.390625 23.890625 10.078125 23.203125 C 9.367188 22.886719 8.628906 22.628906 7.886719 22.371094 C 7.742188 22.917969 7.574219 23.460938 7.402344 24.003906 C 8.457031 24.40625 9.480469 24.894531 10.476562 25.441406 C 10.535156 25.414062 10.5625 25.414062 10.621094 25.382812 Z M 10.621094 25.382812 "/>
<path style=" stroke:none;fill-rule:nonzero;fill:rgb(89.019608%,29.019608%,23.137255%);fill-opacity:1;" d="M 8.882812 20.820312 C 8.710938 20.535156 8.542969 20.277344 8.371094 19.988281 C 8.285156 20.503906 8.199219 21.050781 8.085938 21.566406 C 8.597656 21.710938 9.082031 21.882812 9.566406 22.082031 C 9.367188 21.683594 9.136719 21.25 8.882812 20.820312 Z M 8.882812 20.820312 "/>
<path style=" stroke:none;fill-rule:nonzero;fill:rgb(89.019608%,29.019608%,23.137255%);fill-opacity:1;" d="M 5.097656 18.324219 C 4.128906 19.1875 3.074219 19.933594 1.964844 20.621094 C 2.929688 20.621094 3.902344 20.707031 4.839844 20.847656 C 4.980469 20.019531 5.070312 19.1875 5.097656 18.324219 Z M 5.097656 18.324219 "/>
<path style=" stroke:none;fill-rule:nonzero;fill:rgb(89.019608%,29.019608%,23.137255%);fill-opacity:1;" d="M 7.117188 22.140625 C 6.605469 22 6.066406 21.882812 5.554688 21.765625 C 5.464844 22.257812 5.378906 22.742188 5.265625 23.230469 C 5.722656 23.375 6.207031 23.519531 6.660156 23.691406 C 6.804688 23.203125 6.976562 22.6875 7.117188 22.140625 Z M 7.117188 22.140625 "/>
<path style=" stroke:none;fill-rule:nonzero;fill:rgb(62.352941%,47.843137%,69.019608%);fill-opacity:1;" d="M 8.058594 11.816406 C 8.171875 12.296875 8.257812 12.816406 8.339844 13.332031 C 8.765625 12.671875 9.167969 12.011719 9.511719 11.324219 C 9.023438 11.5 8.542969 11.640625 8.058594 11.816406 Z M 8.058594 11.816406 "/>
<path style=" stroke:none;fill-rule:nonzero;fill:rgb(30.980392%,68.235294%,86.27451%);fill-opacity:1;" d="M 17.59375 7.882812 C 17.195312 7.566406 16.796875 7.222656 16.425781 6.878906 C 16.058594 7.222656 15.6875 7.566406 15.289062 7.882812 C 16.058594 7.941406 16.824219 7.941406 17.59375 7.882812 Z M 17.59375 7.882812 "/>
<path style=" stroke:none;fill-rule:nonzero;fill:rgb(10.588235%,45.882353%,73.333333%);fill-opacity:1;" d="M 23.515625 7.566406 C 24.289062 7.941406 25.054688 8.285156 25.824219 8.601562 C 26.167969 7.710938 26.59375 6.820312 27.046875 5.957031 C 25.910156 6.589844 24.742188 7.136719 23.515625 7.566406 Z M 23.515625 7.566406 "/>
<path style=" stroke:none;fill-rule:nonzero;fill:rgb(62.352941%,47.843137%,69.019608%);fill-opacity:1;" d="M 7.089844 8.628906 C 7.886719 8.316406 8.65625 7.941406 9.425781 7.566406 C 8.171875 7.136719 6.976562 6.589844 5.808594 5.957031 C 6.289062 6.820312 6.71875 7.710938 7.089844 8.628906 Z M 7.089844 8.628906 "/>
<path style=" stroke:none;fill-rule:nonzero;fill:rgb(30.980392%,68.235294%,86.27451%);fill-opacity:1;" d="M 16.425781 3.578125 C 16.089844 3.921875 15.71875 4.238281 15.347656 4.554688 C 15.6875 4.953125 16.058594 5.355469 16.457031 5.730469 C 16.824219 5.355469 17.195312 4.953125 17.539062 4.554688 C 17.140625 4.265625 16.769531 3.921875 16.425781 3.578125 Z M 16.425781 3.578125 "/>
<path style=" stroke:none;fill-rule:nonzero;fill:rgb(30.980392%,68.235294%,86.27451%);fill-opacity:1;" d="M 15.855469 6.332031 C 15.457031 5.929688 15.089844 5.53125 14.722656 5.101562 C 13.835938 5.816406 12.898438 6.476562 11.929688 7.078125 C 11.902344 7.191406 11.875 7.308594 11.84375 7.421875 C 12.582031 7.59375 13.355469 7.710938 14.121094 7.796875 C 14.722656 7.335938 15.289062 6.847656 15.855469 6.332031 Z M 15.855469 6.332031 "/>
<path style=" stroke:none;fill-rule:nonzero;fill:rgb(97.647059%,64.705882%,20%);fill-opacity:1;" d="M 15.289062 25.441406 C 15.6875 25.757812 16.089844 26.101562 16.484375 26.472656 C 16.851562 26.128906 17.253906 25.757812 17.652344 25.441406 C 16.882812 25.382812 16.089844 25.382812 15.289062 25.441406 Z M 15.289062 25.441406 "/>
<path style=" stroke:none;fill-rule:nonzero;fill:rgb(97.647059%,64.705882%,20%);fill-opacity:1;" d="M 12.246094 27.449219 C 12.46875 28.710938 12.613281 29.972656 12.640625 31.234375 C 13.125 30.429688 13.667969 29.628906 14.238281 28.882812 C 13.609375 28.394531 12.925781 27.90625 12.246094 27.449219 Z M 12.246094 27.449219 "/>
<path style=" stroke:none;fill-rule:nonzero;fill:rgb(97.647059%,64.705882%,20%);fill-opacity:1;" d="M 16.484375 29.773438 C 16.851562 29.429688 17.195312 29.109375 17.59375 28.765625 C 17.253906 28.367188 16.882812 27.96875 16.515625 27.589844 C 16.144531 27.96875 15.773438 28.367188 15.402344 28.796875 C 15.773438 29.109375 16.117188 29.429688 16.484375 29.773438 Z M 16.484375 29.773438 "/>
<path style=" stroke:none;fill-rule:nonzero;fill:rgb(97.647059%,64.705882%,20%);fill-opacity:1;" d="M 15.914062 27.019531 C 15.347656 26.472656 14.75 25.984375 14.09375 25.527344 C 13.355469 25.609375 12.613281 25.730469 11.902344 25.898438 C 11.929688 26.042969 11.988281 26.1875 12.015625 26.300781 C 12.953125 26.902344 13.894531 27.535156 14.777344 28.253906 C 15.117188 27.847656 15.515625 27.417969 15.914062 27.019531 Z M 15.914062 27.019531 "/>
<path style=" stroke:none;fill-rule:nonzero;fill:rgb(10.588235%,45.882353%,73.333333%);fill-opacity:1;" d="M 27.675781 10.121094 C 27.21875 9.976562 26.761719 9.832031 26.308594 9.660156 C 26.136719 10.179688 25.964844 10.691406 25.851562 11.210938 C 26.363281 11.351562 26.875 11.46875 27.414062 11.554688 C 27.476562 11.066406 27.5625 10.578125 27.675781 10.121094 Z M 27.675781 10.121094 "/>
<path style=" stroke:none;fill-rule:nonzero;fill:rgb(10.588235%,45.882353%,73.333333%);fill-opacity:1;" d="M 28.1875 11.695312 C 29.554688 11.898438 30.949219 11.953125 32.34375 11.898438 C 32.257812 11.640625 32.171875 11.351562 32.089844 11.09375 C 30.863281 10.921875 29.667969 10.691406 28.472656 10.347656 C 28.359375 10.78125 28.273438 11.238281 28.1875 11.695312 Z M 28.1875 11.695312 "/>
<path style=" stroke:none;fill-rule:nonzero;fill:rgb(54.509804%,77.254902%,24.705882%);fill-opacity:1;" d="M 31.035156 20.5625 C 29.894531 19.875 28.8125 19.101562 27.816406 18.210938 C 27.871094 19.074219 27.957031 19.933594 28.074219 20.792969 C 29.042969 20.652344 30.039062 20.5625 31.035156 20.5625 Z M 31.035156 20.5625 "/>
<path style=" stroke:none;fill-rule:nonzero;fill:rgb(62.352941%,47.843137%,69.019608%);fill-opacity:1;" d="M 2.019531 12.789062 C 3.101562 13.449219 4.128906 14.191406 5.097656 15.027344 C 5.039062 14.191406 4.953125 13.363281 4.839844 12.558594 C 3.902344 12.703125 2.960938 12.761719 2.019531 12.789062 Z M 2.019531 12.789062 "/>
<path style=" stroke:none;fill-rule:nonzero;fill:rgb(10.588235%,45.882353%,73.333333%);fill-opacity:1;" d="M 26.960938 15.828125 C 26.992188 14.65625 27.105469 13.503906 27.246094 12.355469 C 26.707031 12.242188 26.167969 12.128906 25.625 11.984375 C 25.453125 12.730469 25.339844 13.476562 25.253906 14.222656 C 25.710938 14.851562 26.222656 15.453125 26.734375 16.03125 C 26.820312 15.972656 26.90625 15.917969 26.960938 15.828125 Z M 26.960938 15.828125 "/>
<path style=" stroke:none;fill-rule:nonzero;fill:rgb(54.509804%,77.254902%,24.705882%);fill-opacity:1;" d="M 25.851562 24.691406 C 25.054688 25.007812 24.3125 25.351562 23.546875 25.730469 C 24.769531 26.15625 25.964844 26.675781 27.078125 27.304688 C 26.621094 26.472656 26.195312 25.582031 25.851562 24.691406 Z M 25.851562 24.691406 "/>
<path style=" stroke:none;fill-rule:nonzero;fill:rgb(97.647059%,64.705882%,20%);fill-opacity:1;" d="M 17.085938 27.019531 C 17.484375 27.417969 17.847656 27.820312 18.21875 28.253906 C 19.132812 27.503906 20.074219 26.847656 21.070312 26.214844 C 21.097656 26.101562 21.125 26.015625 21.152344 25.898438 C 20.414062 25.730469 19.644531 25.609375 18.875 25.527344 C 18.25 25.984375 17.652344 26.503906 17.085938 27.019531 Z M 17.085938 27.019531 "/>
<path style=" stroke:none;fill-rule:nonzero;fill:rgb(89.019608%,29.019608%,23.137255%);fill-opacity:1;" d="M 7.6875 19.011719 C 7.230469 18.410156 6.746094 17.8125 6.234375 17.261719 C 6.152344 17.347656 6.035156 17.464844 5.949219 17.550781 C 5.921875 18.699219 5.835938 19.847656 5.664062 20.996094 C 6.207031 21.109375 6.773438 21.222656 7.316406 21.367188 C 7.460938 20.589844 7.601562 19.816406 7.6875 19.011719 Z M 7.6875 19.011719 "/>
<path style=" stroke:none;fill-rule:nonzero;fill:rgb(54.509804%,77.254902%,24.705882%);fill-opacity:1;" d="M 24.597656 20.046875 C 24.203125 20.679688 23.804688 21.339844 23.460938 22.027344 C 23.917969 21.851562 24.398438 21.683594 24.882812 21.535156 C 24.769531 21.050781 24.65625 20.5625 24.597656 20.046875 Z M 24.597656 20.046875 "/>
<path style=" stroke:none;fill-rule:nonzero;fill:rgb(54.509804%,77.254902%,24.705882%);fill-opacity:1;" d="M 25.566406 23.949219 C 25.367188 23.402344 25.226562 22.886719 25.082031 22.34375 C 24.371094 22.574219 23.660156 22.828125 22.976562 23.144531 C 22.660156 23.863281 22.40625 24.578125 22.179688 25.324219 C 22.292969 25.351562 22.378906 25.382812 22.492188 25.414062 C 23.460938 24.867188 24.511719 24.347656 25.566406 23.949219 Z M 25.566406 23.949219 "/>
<path style=" stroke:none;fill-rule:nonzero;fill:rgb(62.352941%,47.843137%,69.019608%);fill-opacity:1;" d="M 10.820312 8 C 10.703125 7.96875 10.621094 7.941406 10.507812 7.910156 C 9.480469 8.453125 8.457031 8.972656 7.375 9.402344 C 7.574219 9.917969 7.714844 10.464844 7.886719 11.007812 C 8.628906 10.78125 9.339844 10.492188 10.050781 10.179688 C 10.335938 9.488281 10.589844 8.742188 10.820312 8 Z M 10.820312 8 "/>
<path style=" stroke:none;fill-rule:nonzero;fill:rgb(97.647059%,64.705882%,20%);fill-opacity:1;" d="M 20.414062 31.320312 C 20.414062 29.972656 20.554688 28.65625 20.8125 27.363281 C 20.101562 27.847656 19.417969 28.339844 18.734375 28.882812 C 19.332031 29.65625 19.902344 30.460938 20.414062 31.320312 Z M 20.414062 31.320312 "/>
<path style=" stroke:none;fill-rule:nonzero;fill:rgb(89.019608%,29.019608%,23.137255%);fill-opacity:1;" d="M 5.15625 16.402344 C 5.15625 16.316406 5.15625 16.230469 5.15625 16.171875 C 3.757812 14.851562 2.164062 13.761719 0.457031 12.875 C -0.113281 15.34375 -0.167969 17.953125 0.457031 20.5625 C 2.195312 19.644531 3.757812 18.527344 5.15625 17.207031 C 5.15625 16.917969 5.15625 16.660156 5.15625 16.402344 Z M 5.15625 16.402344 "/>
<path style=" stroke:none;fill-rule:nonzero;fill:rgb(97.647059%,64.705882%,20%);fill-opacity:1;" d="M 17.085938 30.316406 C 17.9375 31.179688 18.761719 32.097656 19.535156 33.074219 C 19.816406 33.015625 20.101562 32.957031 20.359375 32.898438 C 19.730469 31.636719 18.960938 30.460938 18.109375 29.398438 C 17.738281 29.714844 17.394531 30.003906 17.085938 30.316406 Z M 17.085938 30.316406 "/>
<path style=" stroke:none;fill-rule:nonzero;fill:rgb(97.647059%,64.705882%,20%);fill-opacity:1;" d="M 10.390625 26.328125 C 8.542969 26.902344 6.773438 27.734375 5.15625 28.796875 C 7.03125 30.605469 9.308594 31.921875 11.816406 32.667969 C 11.902344 30.71875 11.730469 28.765625 11.304688 26.847656 C 10.992188 26.675781 10.675781 26.503906 10.390625 26.328125 Z M 10.390625 26.328125 "/>
<path style=" stroke:none;fill-rule:nonzero;fill:rgb(97.647059%,64.705882%,20%);fill-opacity:1;" d="M 14.40625 33.214844 C 15.773438 33.386719 17.167969 33.386719 18.5625 33.214844 C 17.90625 32.382812 17.195312 31.605469 16.457031 30.890625 C 15.746094 31.636719 15.0625 32.414062 14.40625 33.214844 Z M 14.40625 33.214844 "/>
<path style=" stroke:none;fill-rule:nonzero;fill:rgb(89.019608%,29.019608%,23.137255%);fill-opacity:1;" d="M 5.039062 24.035156 C 4.726562 25.210938 4.355469 26.328125 3.902344 27.449219 C 4.101562 27.679688 4.269531 27.878906 4.46875 28.105469 C 5.210938 26.960938 5.835938 25.730469 6.320312 24.464844 C 5.921875 24.320312 5.496094 24.179688 5.039062 24.035156 Z M 5.039062 24.035156 "/>
<path style=" stroke:none;fill-rule:nonzero;fill:rgb(89.019608%,29.019608%,23.137255%);fill-opacity:1;" d="M 4.726562 21.65625 C 3.417969 21.453125 2.050781 21.394531 0.683594 21.453125 C 0.769531 21.738281 0.855469 22.027344 0.96875 22.285156 C 2.136719 22.453125 3.300781 22.6875 4.441406 23.003906 C 4.554688 22.574219 4.640625 22.109375 4.726562 21.65625 Z M 4.726562 21.65625 "/>
<path style=" stroke:none;fill-rule:nonzero;fill:rgb(89.019608%,29.019608%,23.137255%);fill-opacity:1;" d="M 1.308594 23.175781 C 1.851562 24.464844 2.535156 25.640625 3.332031 26.730469 C 3.703125 25.785156 4.011719 24.8125 4.269531 23.804688 C 3.300781 23.546875 2.304688 23.347656 1.308594 23.175781 Z M 1.308594 23.175781 "/>
<path style=" stroke:none;fill-rule:nonzero;fill:rgb(97.647059%,64.705882%,20%);fill-opacity:1;" d="M 14.859375 29.429688 C 14.007812 30.519531 13.269531 31.664062 12.667969 32.898438 C 12.953125 32.957031 13.210938 33.015625 13.492188 33.074219 C 14.238281 32.097656 15.03125 31.179688 15.886719 30.316406 C 15.574219 30.03125 15.230469 29.714844 14.859375 29.429688 Z M 14.859375 29.429688 "/>
<path style=" stroke:none;fill-rule:nonzero;fill:rgb(54.509804%,77.254902%,24.705882%);fill-opacity:1;" d="M 21.753906 26.761719 C 21.296875 28.683594 21.125 30.660156 21.238281 32.667969 C 23.832031 31.898438 26.082031 30.546875 27.902344 28.765625 C 26.222656 27.679688 24.429688 26.847656 22.550781 26.273438 C 22.292969 26.445312 22.035156 26.585938 21.753906 26.761719 Z M 21.753906 26.761719 "/>
<path style=" stroke:none;fill-rule:nonzero;fill:rgb(10.588235%,45.882353%,73.333333%);fill-opacity:1;" d="M 32.570312 12.761719 C 30.777344 13.679688 29.183594 14.851562 27.757812 16.203125 C 27.757812 16.488281 27.757812 16.777344 27.757812 17.0625 C 29.183594 18.410156 30.804688 19.585938 32.597656 20.503906 C 33.195312 18.035156 33.226562 15.371094 32.570312 12.761719 Z M 32.570312 12.761719 "/>
<path style=" stroke:none;fill-rule:nonzero;fill:rgb(54.509804%,77.254902%,24.705882%);fill-opacity:1;" d="M 29.667969 26.789062 C 30.523438 25.640625 31.230469 24.40625 31.773438 23.058594 C 30.722656 23.230469 29.695312 23.433594 28.671875 23.71875 C 28.957031 24.78125 29.269531 25.8125 29.667969 26.789062 Z M 29.667969 26.789062 "/>
<path style=" stroke:none;fill-rule:nonzero;fill:rgb(54.509804%,77.254902%,24.705882%);fill-opacity:1;" d="M 28.214844 21.597656 C 28.300781 22.054688 28.382812 22.484375 28.5 22.945312 C 29.695312 22.601562 30.921875 22.371094 32.140625 22.199219 C 32.230469 21.941406 32.316406 21.683594 32.402344 21.394531 C 30.976562 21.339844 29.582031 21.394531 28.214844 21.597656 Z M 28.214844 21.597656 "/>
<path style=" stroke:none;fill-rule:nonzero;fill:rgb(54.509804%,77.254902%,24.705882%);fill-opacity:1;" d="M 27.414062 21.738281 C 26.90625 21.824219 26.363281 21.96875 25.851562 22.109375 C 25.992188 22.628906 26.136719 23.144531 26.335938 23.660156 C 26.792969 23.488281 27.246094 23.347656 27.703125 23.203125 C 27.589844 22.714844 27.503906 22.226562 27.414062 21.738281 Z M 27.414062 21.738281 "/>
<path style=" stroke:none;fill-rule:nonzero;fill:rgb(54.509804%,77.254902%,24.705882%);fill-opacity:1;" d="M 26.621094 24.40625 C 27.132812 25.699219 27.757812 26.960938 28.53125 28.136719 C 28.726562 27.9375 28.898438 27.734375 29.070312 27.535156 C 28.585938 26.359375 28.214844 25.183594 27.902344 23.976562 C 27.476562 24.121094 27.046875 24.261719 26.621094 24.40625 Z M 26.621094 24.40625 "/>
<path style=" stroke:none;fill-rule:nonzero;fill:rgb(54.509804%,77.254902%,24.705882%);fill-opacity:1;" d="M 27.277344 20.9375 C 27.105469 19.761719 26.992188 18.609375 26.960938 17.433594 C 26.90625 17.378906 26.820312 17.292969 26.761719 17.234375 C 26.222656 17.8125 25.738281 18.441406 25.285156 19.074219 C 25.367188 19.816406 25.507812 20.589844 25.652344 21.3125 C 26.195312 21.164062 26.734375 21.050781 27.277344 20.9375 Z M 27.277344 20.9375 "/>
<path style=" stroke:none;fill-rule:nonzero;fill:rgb(30.980392%,68.235294%,86.27451%);fill-opacity:1;" d="M 15.828125 3.035156 C 14.976562 2.199219 14.207031 1.316406 13.464844 0.367188 C 13.183594 0.421875 12.925781 0.480469 12.640625 0.539062 C 13.269531 1.742188 14.007812 2.890625 14.832031 3.953125 C 15.175781 3.636719 15.488281 3.320312 15.828125 3.035156 Z M 15.828125 3.035156 "/>
<path style=" stroke:none;fill-rule:nonzero;fill:rgb(10.588235%,45.882353%,73.333333%);fill-opacity:1;" d="M 27.871094 9.316406 C 28.1875 8.140625 28.558594 6.964844 29.042969 5.816406 C 28.867188 5.613281 28.671875 5.386719 28.472656 5.1875 C 27.703125 6.363281 27.078125 7.59375 26.59375 8.886719 C 27.019531 9.03125 27.445312 9.171875 27.871094 9.316406 Z M 27.871094 9.316406 "/>
<path style=" stroke:none;fill-rule:nonzero;fill:rgb(30.980392%,68.235294%,86.27451%);fill-opacity:1;" d="M 22.492188 7.023438 C 24.371094 6.449219 26.167969 5.613281 27.816406 4.523438 C 25.9375 2.773438 23.660156 1.453125 21.183594 0.738281 C 21.097656 2.746094 21.269531 4.695312 21.722656 6.589844 C 21.980469 6.734375 22.238281 6.878906 22.492188 7.023438 Z M 22.492188 7.023438 "/>
<path style=" stroke:none;fill-rule:nonzero;fill:rgb(10.588235%,45.882353%,73.333333%);fill-opacity:1;" d="M 31.746094 10.207031 C 31.175781 8.886719 30.464844 7.65625 29.609375 6.535156 C 29.238281 7.507812 28.898438 8.511719 28.644531 9.546875 C 29.667969 9.832031 30.691406 10.035156 31.746094 10.207031 Z M 31.746094 10.207031 "/>
<path style=" stroke:none;fill-rule:nonzero;fill:rgb(62.352941%,47.843137%,69.019608%);fill-opacity:1;" d="M 4.699219 11.757812 C 4.613281 11.296875 4.527344 10.867188 4.414062 10.40625 C 3.273438 10.722656 2.105469 10.980469 0.9375 11.15625 C 0.855469 11.410156 0.742188 11.695312 0.683594 11.984375 C 2.019531 12.011719 3.386719 11.953125 4.699219 11.757812 Z M 4.699219 11.757812 "/>
<path style=" stroke:none;fill-rule:nonzero;fill:rgb(10.588235%,45.882353%,73.333333%);fill-opacity:1;" d="M 27.816406 15.054688 C 28.78125 14.191406 29.835938 13.417969 30.976562 12.730469 C 30.011719 12.730469 29.042969 12.644531 28.074219 12.503906 C 27.929688 13.332031 27.84375 14.191406 27.816406 15.054688 Z M 27.816406 15.054688 "/>
<path style=" stroke:none;fill-rule:nonzero;fill:rgb(30.980392%,68.235294%,86.27451%);fill-opacity:1;" d="M 18.449219 0.164062 C 17.113281 -0.0078125 15.746094 0.0234375 14.378906 0.195312 C 15.03125 1 15.6875 1.742188 16.425781 2.457031 C 17.140625 1.714844 17.824219 0.96875 18.449219 0.164062 Z M 18.449219 0.164062 "/>
<path style=" stroke:none;fill-rule:nonzero;fill:rgb(10.588235%,45.882353%,73.333333%);fill-opacity:1;" d="M 23.460938 11.296875 C 23.804688 11.953125 24.171875 12.613281 24.570312 13.246094 C 24.65625 12.761719 24.742188 12.269531 24.855469 11.785156 C 24.398438 11.609375 23.917969 11.46875 23.460938 11.296875 Z M 23.460938 11.296875 "/>
<path style=" stroke:none;fill-rule:nonzero;fill:rgb(30.980392%,68.235294%,86.27451%);fill-opacity:1;" d="M 18.050781 3.953125 C 18.90625 2.890625 19.617188 1.714844 20.242188 0.480469 C 19.957031 0.421875 19.671875 0.367188 19.390625 0.308594 C 18.648438 1.253906 17.847656 2.171875 17 3.035156 C 17.339844 3.320312 17.679688 3.636719 18.050781 3.953125 Z M 18.050781 3.953125 "/>
<path style=" stroke:none;fill-rule:nonzero;fill:rgb(62.352941%,47.843137%,69.019608%);fill-opacity:1;" d="M 6.320312 8.917969 C 5.835938 7.65625 5.210938 6.449219 4.46875 5.296875 C 4.269531 5.503906 4.070312 5.730469 3.902344 5.957031 C 4.355469 7.078125 4.726562 8.195312 5.011719 9.375 C 5.464844 9.230469 5.894531 9.085938 6.320312 8.917969 Z M 6.320312 8.917969 "/>
<path style=" stroke:none;fill-rule:nonzero;fill:rgb(62.352941%,47.843137%,69.019608%);fill-opacity:1;" d="M 7.65625 14.308594 C 7.574219 13.535156 7.433594 12.789062 7.261719 12.042969 C 6.71875 12.1875 6.179688 12.328125 5.609375 12.417969 C 5.78125 13.535156 5.863281 14.65625 5.921875 15.796875 C 6.007812 15.886719 6.121094 15.972656 6.207031 16.085938 C 6.746094 15.511719 7.230469 14.941406 7.65625 14.308594 Z M 7.65625 14.308594 "/>
<path style=" stroke:none;fill-rule:nonzero;fill:rgb(62.352941%,47.843137%,69.019608%);fill-opacity:1;" d="M 3.300781 6.707031 C 2.503906 7.796875 1.824219 9.003906 1.308594 10.234375 C 2.304688 10.0625 3.273438 9.863281 4.242188 9.605469 C 3.984375 8.628906 3.671875 7.65625 3.300781 6.707031 Z M 3.300781 6.707031 "/>
<path style=" stroke:none;fill-rule:nonzero;fill:rgb(62.352941%,47.843137%,69.019608%);fill-opacity:1;" d="M 11.21875 6.5625 C 11.644531 4.695312 11.816406 2.746094 11.730469 0.765625 C 9.195312 1.539062 6.976562 2.890625 5.15625 4.609375 C 6.773438 5.671875 8.570312 6.476562 10.390625 7.023438 C 10.675781 6.878906 10.960938 6.707031 11.21875 6.5625 Z M 11.21875 6.5625 "/>
<path style=" stroke:none;fill-rule:nonzero;fill:rgb(30.980392%,68.235294%,86.27451%);fill-opacity:1;" d="M 12.582031 2.113281 C 12.554688 3.40625 12.441406 4.695312 12.1875 5.929688 C 12.867188 5.472656 13.550781 4.984375 14.207031 4.441406 C 13.609375 3.722656 13.066406 2.949219 12.582031 2.113281 Z M 12.582031 2.113281 "/>
<path style=" stroke:none;fill-rule:nonzero;fill:rgb(62.352941%,47.843137%,69.019608%);fill-opacity:1;" d="M 5.496094 11.609375 C 6.035156 11.5 6.550781 11.382812 7.089844 11.238281 C 6.949219 10.722656 6.773438 10.207031 6.605469 9.691406 C 6.152344 9.863281 5.664062 10.003906 5.210938 10.148438 C 5.324219 10.636719 5.40625 11.125 5.496094 11.609375 Z M 5.496094 11.609375 "/>
<path style=" stroke:none;fill-rule:nonzero;fill:rgb(10.588235%,45.882353%,73.333333%);fill-opacity:1;" d="M 22.351562 7.910156 C 22.265625 7.941406 22.179688 7.941406 22.121094 7.96875 C 22.351562 8.714844 22.632812 9.457031 22.945312 10.179688 C 23.628906 10.464844 24.34375 10.722656 25.054688 10.953125 C 25.199219 10.40625 25.367188 9.890625 25.539062 9.347656 C 24.457031 8.917969 23.433594 8.425781 22.40625 7.882812 C 22.378906 7.910156 22.378906 7.910156 22.351562 7.910156 Z M 22.351562 7.910156 "/>
<path style=" stroke:none;fill-rule:nonzero;fill:rgb(10.588235%,45.882353%,73.333333%);fill-opacity:1;" d="M 44.984375 13.621094 C 42.621094 13.621094 41.054688 11.925781 41.054688 9.660156 C 41.054688 7.507812 42.675781 5.703125 44.984375 5.703125 C 46.296875 5.703125 47.121094 6.074219 47.886719 6.734375 L 47.035156 7.738281 C 46.4375 7.222656 45.867188 6.90625 44.898438 6.90625 C 43.503906 6.90625 42.453125 8.140625 42.453125 9.605469 C 42.453125 11.183594 43.476562 12.355469 45.039062 12.355469 C 45.753906 12.355469 46.40625 12.128906 46.863281 11.785156 L 46.863281 10.347656 L 44.929688 10.347656 L 44.929688 9.230469 L 48.175781 9.230469 L 48.175781 12.445312 C 47.402344 13.074219 46.324219 13.621094 44.984375 13.621094 Z M 44.984375 13.621094 "/>
<path style=" stroke:none;fill-rule:nonzero;fill:rgb(10.588235%,45.882353%,73.333333%);fill-opacity:1;" d="M 49.824219 13.476562 L 49.824219 5.503906 L 51.132812 5.503906 L 51.132812 13.476562 Z M 49.824219 13.476562 "/>
<path style=" stroke:none;fill-rule:nonzero;fill:rgb(10.588235%,45.882353%,73.333333%);fill-opacity:1;" d="M 55.574219 13.621094 C 53.839844 13.621094 52.53125 12.269531 52.53125 10.636719 C 52.53125 8.972656 53.839844 7.59375 55.574219 7.59375 C 57.339844 7.59375 58.625 8.945312 58.625 10.609375 C 58.625 12.242188 57.339844 13.621094 55.574219 13.621094 Z M 55.574219 8.742188 C 54.523438 8.742188 53.839844 9.574219 53.839844 10.578125 C 53.839844 11.609375 54.578125 12.445312 55.574219 12.445312 C 56.628906 12.445312 57.3125 11.609375 57.3125 10.609375 C 57.3125 9.605469 56.601562 8.742188 55.574219 8.742188 Z M 55.574219 8.742188 "/>
<path style=" stroke:none;fill-rule:nonzero;fill:rgb(10.588235%,45.882353%,73.333333%);fill-opacity:1;" d="M 63.234375 13.621094 C 62.296875 13.621094 61.695312 13.132812 61.300781 12.613281 L 61.300781 13.503906 L 59.988281 13.503906 L 59.988281 5.503906 L 61.300781 5.503906 L 61.300781 8.660156 C 61.726562 8.054688 62.324219 7.566406 63.234375 7.566406 C 64.601562 7.566406 65.910156 8.660156 65.910156 10.578125 C 65.882812 12.53125 64.601562 13.621094 63.234375 13.621094 Z M 62.925781 8.742188 C 62.039062 8.742188 61.242188 9.488281 61.242188 10.609375 C 61.242188 11.726562 62.011719 12.472656 62.925781 12.472656 C 63.832031 12.472656 64.574219 11.757812 64.574219 10.609375 C 64.542969 9.457031 63.804688 8.742188 62.925781 8.742188 Z M 62.925781 8.742188 "/>
<path style=" stroke:none;fill-rule:nonzero;fill:rgb(10.588235%,45.882353%,73.333333%);fill-opacity:1;" d="M 70.753906 13.476562 L 70.753906 12.761719 C 70.351562 13.21875 69.757812 13.589844 68.898438 13.589844 C 67.820312 13.589844 66.851562 12.957031 66.851562 11.816406 C 66.851562 10.578125 67.847656 9.949219 69.1875 9.949219 C 69.867188 9.949219 70.324219 10.035156 70.78125 10.179688 L 70.78125 10.035156 C 70.78125 9.230469 70.265625 8.796875 69.355469 8.796875 C 68.730469 8.796875 68.246094 8.945312 67.707031 9.171875 L 67.335938 8.109375 C 67.960938 7.824219 68.585938 7.625 69.527344 7.625 C 71.207031 7.625 72.035156 8.511719 72.035156 10.0625 L 72.035156 13.476562 Z M 70.78125 11.039062 C 70.4375 10.894531 69.980469 10.808594 69.46875 10.808594 C 68.644531 10.808594 68.160156 11.15625 68.160156 11.726562 L 68.160156 11.757812 C 68.160156 12.296875 68.644531 12.613281 69.269531 12.613281 C 70.128906 12.613281 70.78125 12.128906 70.78125 11.410156 Z M 70.78125 11.039062 "/>
<path style=" stroke:none;fill-rule:nonzero;fill:rgb(10.588235%,45.882353%,73.333333%);fill-opacity:1;" d="M 73.683594 13.476562 L 73.683594 5.503906 L 74.992188 5.503906 L 74.992188 13.476562 Z M 73.683594 13.476562 "/>
<path style=" stroke:none;fill-rule:nonzero;fill:rgb(10.588235%,45.882353%,73.333333%);fill-opacity:1;" d="M 87.378906 13.476562 L 85.957031 13.476562 L 85.183594 11.640625 L 81.601562 11.640625 L 80.828125 13.476562 L 79.460938 13.476562 L 82.792969 5.789062 L 84.019531 5.789062 Z M 83.390625 7.394531 L 82.082031 10.464844 L 84.703125 10.464844 Z M 83.390625 7.394531 "/>
<path style=" stroke:none;fill-rule:nonzero;fill:rgb(10.588235%,45.882353%,73.333333%);fill-opacity:1;" d="M 88.601562 13.476562 L 88.601562 5.503906 L 89.910156 5.503906 L 89.910156 13.476562 Z M 88.601562 13.476562 "/>
<path style=" stroke:none;fill-rule:nonzero;fill:rgb(10.588235%,45.882353%,73.333333%);fill-opacity:1;" d="M 91.707031 13.476562 L 91.707031 5.503906 L 93.015625 5.503906 L 93.015625 13.476562 Z M 91.707031 13.476562 "/>
<path style=" stroke:none;fill-rule:nonzero;fill:rgb(10.588235%,45.882353%,73.333333%);fill-opacity:1;" d="M 94.753906 6.820312 L 94.753906 5.558594 L 96.175781 5.558594 L 96.175781 6.820312 Z M 94.808594 13.476562 L 94.808594 7.710938 L 96.121094 7.710938 L 96.121094 13.476562 Z M 94.808594 13.476562 "/>
<path style=" stroke:none;fill-rule:nonzero;fill:rgb(10.588235%,45.882353%,73.333333%);fill-opacity:1;" d="M 101.332031 13.476562 L 101.332031 12.761719 C 100.929688 13.21875 100.335938 13.589844 99.480469 13.589844 C 98.398438 13.589844 97.429688 12.957031 97.429688 11.816406 C 97.429688 10.578125 98.425781 9.949219 99.765625 9.949219 C 100.445312 9.949219 100.902344 10.035156 101.359375 10.179688 L 101.359375 10.035156 C 101.359375 9.230469 100.847656 8.796875 99.933594 8.796875 C 99.308594 8.796875 98.824219 8.945312 98.285156 9.171875 L 97.914062 8.109375 C 98.539062 7.824219 99.164062 7.625 100.105469 7.625 C 101.785156 7.625 102.613281 8.511719 102.613281 10.0625 L 102.613281 13.476562 Z M 101.359375 11.039062 C 101.015625 10.894531 100.558594 10.808594 100.050781 10.808594 C 99.222656 10.808594 98.738281 11.15625 98.738281 11.726562 L 98.738281 11.757812 C 98.738281 12.296875 99.222656 12.613281 99.851562 12.613281 C 100.707031 12.613281 101.359375 12.128906 101.359375 11.410156 Z M 101.359375 11.039062 "/>
<path style=" stroke:none;fill-rule:nonzero;fill:rgb(10.588235%,45.882353%,73.333333%);fill-opacity:1;" d="M 105.515625 13.476562 L 104.203125 13.476562 L 104.203125 7.710938 L 105.515625 7.710938 L 105.515625 8.601562 C 105.886719 8.054688 106.429688 7.59375 107.308594 7.59375 C 108.589844 7.59375 109.359375 8.453125 109.359375 9.804688 L 109.359375 13.476562 L 108.050781 13.476562 L 108.050781 10.207031 C 108.050781 9.316406 107.59375 8.796875 106.824219 8.796875 C 106.058594 8.796875 105.542969 9.347656 105.542969 10.234375 L 105.542969 13.476562 Z M 105.515625 13.476562 "/>
<path style=" stroke:none;fill-rule:nonzero;fill:rgb(10.588235%,45.882353%,73.333333%);fill-opacity:1;" d="M 113.574219 13.621094 C 111.863281 13.621094 110.609375 12.269531 110.609375 10.636719 C 110.609375 9.003906 111.863281 7.59375 113.574219 7.59375 C 114.65625 7.59375 115.339844 8 115.847656 8.601562 L 115.023438 9.488281 C 114.628906 9.058594 114.199219 8.769531 113.546875 8.769531 C 112.578125 8.769531 111.894531 9.605469 111.894531 10.609375 C 111.894531 11.640625 112.605469 12.472656 113.605469 12.472656 C 114.226562 12.472656 114.683594 12.1875 115.082031 11.757812 L 115.878906 12.53125 C 115.339844 13.160156 114.683594 13.621094 113.574219 13.621094 Z M 113.574219 13.621094 "/>
<path style=" stroke:none;fill-rule:nonzero;fill:rgb(10.588235%,45.882353%,73.333333%);fill-opacity:1;" d="M 119.578125 12.53125 C 120.207031 12.53125 120.660156 12.296875 121.144531 11.84375 L 121.914062 12.53125 C 121.375 13.191406 120.632812 13.621094 119.578125 13.621094 C 117.929688 13.621094 116.648438 12.417969 116.648438 10.609375 C 116.648438 8.945312 117.816406 7.59375 119.4375 7.59375 C 121.261719 7.59375 122.171875 9.03125 122.171875 10.722656 C 122.171875 10.835938 122.171875 10.953125 122.144531 11.09375 L 117.929688 11.09375 C 118.097656 12.011719 118.753906 12.53125 119.578125 12.53125 Z M 120.863281 10.207031 C 120.777344 9.347656 120.265625 8.6875 119.410156 8.6875 C 118.613281 8.6875 118.042969 9.316406 117.929688 10.207031 Z M 120.863281 10.207031 "/>
<path style=" stroke:none;fill-rule:nonzero;fill:rgb(46.666667%,47.058824%,48.235294%);fill-opacity:1;" d="M 43.933594 20.363281 L 43.933594 21.023438 L 42.308594 21.023438 L 42.308594 25.527344 L 41.570312 25.527344 L 41.570312 21.023438 L 40.855469 21.023438 L 40.855469 20.363281 L 41.570312 20.363281 L 41.570312 19.902344 C 41.570312 18.785156 42.136719 18.183594 43.105469 18.183594 C 43.476562 18.183594 43.703125 18.210938 43.960938 18.324219 L 43.960938 18.984375 C 43.671875 18.898438 43.476562 18.84375 43.21875 18.84375 C 42.621094 18.84375 42.335938 19.214844 42.335938 19.933594 L 42.335938 20.363281 Z M 43.933594 20.363281 "/>
<path style=" stroke:none;fill-rule:nonzero;fill:rgb(46.666667%,47.058824%,48.235294%);fill-opacity:1;" d="M 47.148438 25.640625 C 45.609375 25.640625 44.472656 24.40625 44.472656 22.945312 C 44.472656 21.480469 45.609375 20.21875 47.148438 20.21875 C 48.6875 20.21875 49.824219 21.453125 49.824219 22.917969 C 49.851562 24.378906 48.714844 25.640625 47.148438 25.640625 Z M 47.148438 20.90625 C 46.035156 20.90625 45.273438 21.796875 45.273438 22.917969 C 45.273438 24.035156 46.09375 24.953125 47.179688 24.953125 C 48.289062 24.953125 49.058594 24.0625 49.058594 22.945312 C 49.085938 21.796875 48.257812 20.90625 47.148438 20.90625 Z M 47.148438 20.90625 "/>
<path style=" stroke:none;fill-rule:nonzero;fill:rgb(46.666667%,47.058824%,48.235294%);fill-opacity:1;" d="M 52.019531 25.5 L 51.246094 25.5 L 51.246094 20.335938 L 52.019531 20.335938 L 52.019531 21.683594 C 52.390625 20.820312 53.128906 20.191406 54.125 20.246094 L 54.125 21.078125 L 54.066406 21.078125 C 52.957031 21.078125 52.019531 21.882812 52.019531 23.460938 Z M 52.019531 25.5 "/>
<path style=" stroke:none;fill-rule:nonzero;fill:rgb(46.666667%,47.058824%,48.235294%);fill-opacity:1;" d="M 61.613281 25.640625 C 59.417969 25.640625 58.082031 24.035156 58.082031 22.027344 C 58.082031 20.105469 59.476562 18.382812 61.585938 18.382812 C 62.75 18.382812 63.492188 18.726562 64.171875 19.296875 L 63.664062 19.902344 C 63.121094 19.445312 62.523438 19.101562 61.558594 19.101562 C 60.019531 19.101562 58.90625 20.417969 58.90625 22 C 58.90625 23.691406 59.960938 24.921875 61.667969 24.921875 C 62.46875 24.921875 63.207031 24.605469 63.691406 24.234375 L 63.691406 22.484375 L 61.585938 22.484375 L 61.585938 21.765625 L 64.460938 21.765625 L 64.460938 24.550781 C 63.746094 25.15625 62.777344 25.640625 61.613281 25.640625 Z M 61.613281 25.640625 "/>
<path style=" stroke:none;fill-rule:nonzero;fill:rgb(46.666667%,47.058824%,48.235294%);fill-opacity:1;" d="M 68.304688 24.953125 C 69.015625 24.953125 69.496094 24.664062 69.925781 24.234375 L 70.410156 24.664062 C 69.894531 25.238281 69.269531 25.640625 68.304688 25.640625 C 66.878906 25.640625 65.742188 24.550781 65.742188 22.945312 C 65.742188 21.453125 66.792969 20.246094 68.21875 20.246094 C 69.726562 20.246094 70.609375 21.480469 70.609375 23.003906 C 70.609375 23.058594 70.609375 23.144531 70.609375 23.230469 L 66.535156 23.230469 C 66.59375 24.320312 67.394531 24.953125 68.304688 24.953125 Z M 69.8125 22.628906 C 69.726562 21.683594 69.1875 20.878906 68.160156 20.878906 C 67.277344 20.878906 66.59375 21.625 66.480469 22.628906 Z M 69.8125 22.628906 "/>
<path style=" stroke:none;fill-rule:nonzero;fill:rgb(46.666667%,47.058824%,48.235294%);fill-opacity:1;" d="M 72.6875 25.5 L 71.917969 25.5 L 71.917969 20.335938 L 72.6875 20.335938 L 72.6875 21.222656 C 73.03125 20.652344 73.570312 20.21875 74.453125 20.21875 C 75.703125 20.21875 76.417969 21.050781 76.417969 22.285156 L 76.417969 25.5 L 75.648438 25.5 L 75.648438 22.484375 C 75.648438 21.507812 75.136719 20.9375 74.226562 20.9375 C 73.339844 20.9375 72.6875 21.597656 72.6875 22.574219 Z M 72.6875 25.5 "/>
<path style=" stroke:none;fill-rule:nonzero;fill:rgb(46.666667%,47.058824%,48.235294%);fill-opacity:1;" d="M 80.402344 25.640625 C 78.867188 25.640625 77.726562 24.40625 77.726562 22.945312 C 77.726562 21.480469 78.867188 20.21875 80.402344 20.21875 C 81.941406 20.21875 83.078125 21.453125 83.078125 22.917969 C 83.078125 24.378906 81.941406 25.640625 80.402344 25.640625 Z M 80.402344 20.90625 C 79.292969 20.90625 78.523438 21.796875 78.523438 22.917969 C 78.523438 24.035156 79.347656 24.953125 80.429688 24.953125 C 81.542969 24.953125 82.3125 24.0625 82.3125 22.945312 C 82.3125 21.796875 81.484375 20.90625 80.402344 20.90625 Z M 80.402344 20.90625 "/>
<path style=" stroke:none;fill-rule:nonzero;fill:rgb(46.666667%,47.058824%,48.235294%);fill-opacity:1;" d="M 90.339844 20.21875 C 91.535156 20.21875 92.246094 21.023438 92.246094 22.3125 L 92.246094 25.527344 L 91.476562 25.527344 L 91.476562 22.484375 C 91.476562 21.480469 90.992188 20.9375 90.140625 20.9375 C 89.371094 20.9375 88.71875 21.507812 88.71875 22.542969 L 88.71875 25.527344 L 87.976562 25.527344 L 87.976562 22.453125 C 87.976562 21.480469 87.464844 20.90625 86.667969 20.90625 C 85.84375 20.90625 85.242188 21.597656 85.242188 22.542969 L 85.242188 25.5 L 84.476562 25.5 L 84.476562 20.335938 L 85.242188 20.335938 L 85.242188 21.191406 C 85.585938 20.679688 86.042969 20.21875 86.894531 20.21875 C 87.722656 20.21875 88.261719 20.679688 88.542969 21.25 C 88.914062 20.679688 89.457031 20.21875 90.339844 20.21875 Z M 90.339844 20.21875 "/>
<path style=" stroke:none;fill-rule:nonzero;fill:rgb(46.666667%,47.058824%,48.235294%);fill-opacity:1;" d="M 93.957031 19.1875 L 93.957031 18.324219 L 94.835938 18.324219 L 94.835938 19.1875 Z M 93.984375 25.5 L 93.984375 20.335938 L 94.753906 20.335938 L 94.753906 25.5 Z M 93.984375 25.5 "/>
<path style=" stroke:none;fill-rule:nonzero;fill:rgb(46.666667%,47.058824%,48.235294%);fill-opacity:1;" d="M 98.855469 25.640625 C 97.34375 25.640625 96.203125 24.40625 96.203125 22.945312 C 96.203125 21.480469 97.34375 20.21875 98.855469 20.21875 C 99.820312 20.21875 100.417969 20.621094 100.902344 21.136719 L 100.390625 21.683594 C 99.992188 21.25 99.535156 20.90625 98.824219 20.90625 C 97.773438 20.90625 96.976562 21.796875 96.976562 22.917969 C 96.976562 24.035156 97.800781 24.953125 98.855469 24.953125 C 99.507812 24.953125 100.019531 24.605469 100.417969 24.179688 L 100.902344 24.636719 C 100.417969 25.210938 99.820312 25.640625 98.855469 25.640625 Z M 98.855469 25.640625 "/>
<path style=" stroke:none;fill-rule:nonzero;fill:rgb(46.666667%,47.058824%,48.235294%);fill-opacity:1;" d="M 103.917969 25.609375 C 103.179688 25.609375 102.382812 25.324219 101.785156 24.839844 L 102.183594 24.292969 C 102.753906 24.722656 103.351562 24.953125 103.949219 24.953125 C 104.578125 24.953125 105.003906 24.636719 105.003906 24.121094 L 105.003906 24.089844 C 105.003906 23.574219 104.402344 23.375 103.722656 23.175781 C 102.921875 22.945312 102.011719 22.660156 102.011719 21.710938 L 102.011719 21.683594 C 102.011719 20.792969 102.753906 20.191406 103.75 20.191406 C 104.375 20.191406 105.0625 20.417969 105.601562 20.761719 L 105.257812 21.339844 C 104.777344 21.023438 104.234375 20.847656 103.75 20.847656 C 103.152344 20.847656 102.753906 21.164062 102.753906 21.597656 L 102.753906 21.625 C 102.753906 22.109375 103.378906 22.3125 104.066406 22.511719 C 104.859375 22.742188 105.714844 23.058594 105.714844 24.003906 L 105.714844 24.035156 C 105.742188 25.039062 104.945312 25.609375 103.917969 25.609375 Z M 103.917969 25.609375 "/>
<path style=" stroke:none;fill-rule:nonzero;fill:rgb(46.666667%,47.058824%,48.235294%);fill-opacity:1;" d="M 120.945312 22.34375 L 120.945312 25.5 L 120.148438 25.5 L 120.148438 18.5 L 120.945312 18.5 L 120.945312 21.625 L 124.960938 21.625 L 124.960938 18.5 L 125.757812 18.5 L 125.757812 25.5 L 124.960938 25.5 L 124.960938 22.34375 Z M 120.945312 22.34375 "/>
<path style=" stroke:none;fill-rule:nonzero;fill:rgb(46.666667%,47.058824%,48.235294%);fill-opacity:1;" d="M 129.859375 24.953125 C 130.570312 24.953125 131.054688 24.664062 131.480469 24.234375 L 131.964844 24.664062 C 131.453125 25.238281 130.828125 25.640625 129.859375 25.640625 C 128.4375 25.640625 127.292969 24.550781 127.292969 22.945312 C 127.292969 21.453125 128.351562 20.246094 129.773438 20.246094 C 131.285156 20.246094 132.164062 21.480469 132.164062 23.003906 C 132.164062 23.058594 132.164062 23.144531 132.164062 23.230469 L 128.09375 23.230469 C 128.179688 24.320312 128.976562 24.953125 129.859375 24.953125 Z M 131.367188 22.628906 C 131.285156 21.683594 130.742188 20.878906 129.714844 20.878906 C 128.832031 20.878906 128.152344 21.625 128.035156 22.628906 Z M 131.367188 22.628906 "/>
<path style=" stroke:none;fill-rule:nonzero;fill:rgb(46.666667%,47.058824%,48.235294%);fill-opacity:1;" d="M 133.789062 21.3125 L 133.558594 20.679688 C 134.128906 20.417969 134.671875 20.246094 135.4375 20.246094 C 136.832031 20.246094 137.632812 20.964844 137.632812 22.34375 L 137.632812 25.5 L 136.890625 25.5 L 136.890625 24.722656 C 136.523438 25.183594 135.921875 25.609375 135.039062 25.609375 C 134.101562 25.609375 133.132812 25.066406 133.132812 23.976562 C 133.132812 22.886719 134.015625 22.285156 135.324219 22.285156 C 135.980469 22.285156 136.433594 22.371094 136.917969 22.511719 L 136.917969 22.34375 C 136.917969 21.421875 136.351562 20.9375 135.382812 20.9375 C 134.726562 20.9375 134.273438 21.109375 133.789062 21.3125 Z M 133.871094 23.976562 C 133.871094 24.636719 134.46875 25.007812 135.15625 25.007812 C 136.09375 25.007812 136.859375 24.4375 136.859375 23.605469 L 136.859375 23.117188 C 136.492188 23.003906 135.980469 22.886719 135.355469 22.886719 C 134.414062 22.886719 133.871094 23.316406 133.871094 23.976562 Z M 133.871094 23.976562 "/>
<path style=" stroke:none;fill-rule:nonzero;fill:rgb(46.666667%,47.058824%,48.235294%);fill-opacity:1;" d="M 139.308594 25.5 L 139.308594 18.210938 L 140.082031 18.210938 L 140.082031 25.527344 L 139.308594 25.527344 Z M 139.308594 25.5 "/>
<path style=" stroke:none;fill-rule:nonzero;fill:rgb(46.666667%,47.058824%,48.235294%);fill-opacity:1;" d="M 142.898438 24.035156 C 142.898438 24.664062 143.242188 24.894531 143.753906 24.894531 C 144.007812 24.894531 144.238281 24.839844 144.492188 24.722656 L 144.492188 25.382812 C 144.238281 25.527344 143.921875 25.609375 143.578125 25.609375 C 142.757812 25.609375 142.128906 25.210938 142.128906 24.152344 L 142.128906 21.023438 L 141.417969 21.023438 L 141.417969 20.335938 L 142.128906 20.335938 L 142.128906 18.785156 L 142.898438 18.785156 L 142.898438 20.335938 L 144.519531 20.335938 L 144.519531 21.023438 L 142.898438 21.023438 Z M 142.898438 24.035156 "/>
<path style=" stroke:none;fill-rule:nonzero;fill:rgb(46.666667%,47.058824%,48.235294%);fill-opacity:1;" d="M 146.628906 25.5 L 145.859375 25.5 L 145.859375 18.210938 L 146.628906 18.210938 L 146.628906 21.25 C 146.96875 20.679688 147.511719 20.246094 148.394531 20.246094 C 149.648438 20.246094 150.359375 21.078125 150.359375 22.3125 L 150.359375 25.527344 L 149.589844 25.527344 L 149.589844 22.484375 C 149.589844 21.507812 149.078125 20.9375 148.167969 20.9375 C 147.28125 20.9375 146.628906 21.597656 146.628906 22.574219 Z M 146.628906 25.5 "/>
<path style=" stroke:none;fill-rule:nonzero;fill:rgb(10.588235%,45.882353%,73.333333%);fill-opacity:1;" d="M 43.277344 39.527344 C 41.914062 39.527344 40.914062 38.46875 40.914062 37.085938 C 40.914062 35.742188 41.914062 34.652344 43.277344 34.652344 C 44.128906 34.652344 44.644531 34.96875 45.097656 35.398438 L 44.730469 35.796875 C 44.332031 35.421875 43.902344 35.136719 43.246094 35.136719 C 42.222656 35.136719 41.425781 35.96875 41.425781 37.085938 C 41.425781 38.179688 42.222656 39.039062 43.246094 39.039062 C 43.902344 39.039062 44.304688 38.78125 44.757812 38.347656 L 45.097656 38.695312 C 44.671875 39.183594 44.128906 39.527344 43.277344 39.527344 Z M 43.277344 39.527344 "/>
<path style=" stroke:none;fill-rule:nonzero;fill:rgb(10.588235%,45.882353%,73.333333%);fill-opacity:1;" d="M 47.519531 39.527344 C 46.492188 39.527344 45.726562 38.695312 45.726562 37.71875 C 45.726562 36.714844 46.492188 35.882812 47.546875 35.882812 C 48.574219 35.882812 49.339844 36.714844 49.339844 37.691406 C 49.339844 38.664062 48.574219 39.527344 47.519531 39.527344 Z M 47.519531 36.34375 C 46.777344 36.34375 46.265625 36.945312 46.265625 37.691406 C 46.265625 38.4375 46.808594 39.070312 47.546875 39.070312 C 48.289062 39.070312 48.828125 38.46875 48.828125 37.71875 C 48.800781 36.945312 48.257812 36.34375 47.519531 36.34375 Z M 47.519531 36.34375 "/>
<path style=" stroke:none;fill-rule:nonzero;fill:rgb(10.588235%,45.882353%,73.333333%);fill-opacity:1;" d="M 50.308594 39.441406 L 50.308594 34.503906 L 50.820312 34.503906 L 50.820312 39.441406 Z M 50.308594 39.441406 "/>
<path style=" stroke:none;fill-rule:nonzero;fill:rgb(10.588235%,45.882353%,73.333333%);fill-opacity:1;" d="M 52.074219 39.441406 L 52.074219 34.503906 L 52.585938 34.503906 L 52.585938 39.441406 Z M 52.074219 39.441406 "/>
<path style=" stroke:none;fill-rule:nonzero;fill:rgb(10.588235%,45.882353%,73.333333%);fill-opacity:1;" d="M 53.980469 36.601562 L 53.839844 36.171875 C 54.207031 36 54.605469 35.882812 55.089844 35.882812 C 56.03125 35.882812 56.570312 36.371094 56.570312 37.289062 L 56.570312 39.414062 L 56.085938 39.414062 L 56.085938 38.898438 C 55.863281 39.210938 55.433594 39.5 54.839844 39.5 C 54.179688 39.5 53.554688 39.125 53.554688 38.410156 C 53.554688 37.660156 54.152344 37.261719 55.035156 37.261719 C 55.492188 37.261719 55.804688 37.316406 56.085938 37.402344 L 56.085938 37.289062 C 56.085938 36.65625 55.71875 36.34375 55.0625 36.34375 C 54.636719 36.371094 54.324219 36.457031 53.980469 36.601562 Z M 54.039062 38.410156 C 54.039062 38.867188 54.4375 39.097656 54.921875 39.097656 C 55.546875 39.097656 56.085938 38.695312 56.085938 38.152344 L 56.085938 37.808594 C 55.835938 37.71875 55.492188 37.660156 55.0625 37.660156 C 54.410156 37.660156 54.039062 37.949219 54.039062 38.410156 Z M 54.039062 38.410156 "/>
<path style=" stroke:none;fill-rule:nonzero;fill:rgb(10.588235%,45.882353%,73.333333%);fill-opacity:1;" d="M 59.503906 39.5 C 58.851562 39.5 58.449219 39.15625 58.167969 38.753906 L 58.167969 39.414062 L 57.65625 39.414062 L 57.65625 34.476562 L 58.167969 34.476562 L 58.167969 36.628906 C 58.449219 36.199219 58.851562 35.855469 59.503906 35.855469 C 60.328125 35.855469 61.15625 36.515625 61.15625 37.660156 C 61.15625 38.839844 60.359375 39.5 59.503906 39.5 Z M 59.417969 36.34375 C 58.765625 36.34375 58.167969 36.886719 58.167969 37.691406 C 58.167969 38.496094 58.765625 39.039062 59.417969 39.039062 C 60.105469 39.039062 60.644531 38.554688 60.644531 37.691406 C 60.644531 36.859375 60.074219 36.34375 59.417969 36.34375 Z M 59.417969 36.34375 "/>
<path style=" stroke:none;fill-rule:nonzero;fill:rgb(10.588235%,45.882353%,73.333333%);fill-opacity:1;" d="M 63.691406 39.527344 C 62.667969 39.527344 61.898438 38.695312 61.898438 37.71875 C 61.898438 36.714844 62.667969 35.882812 63.71875 35.882812 C 64.742188 35.882812 65.511719 36.714844 65.511719 37.691406 C 65.511719 38.664062 64.742188 39.527344 63.691406 39.527344 Z M 63.691406 36.34375 C 62.953125 36.34375 62.4375 36.945312 62.4375 37.691406 C 62.4375 38.4375 62.980469 39.070312 63.71875 39.070312 C 64.460938 39.070312 65 38.46875 65 37.71875 C 65 36.945312 64.429688 36.34375 63.691406 36.34375 Z M 63.691406 36.34375 "/>
<path style=" stroke:none;fill-rule:nonzero;fill:rgb(10.588235%,45.882353%,73.333333%);fill-opacity:1;" d="M 66.964844 39.441406 L 66.453125 39.441406 L 66.453125 35.941406 L 66.964844 35.941406 L 66.964844 36.859375 C 67.222656 36.285156 67.734375 35.855469 68.390625 35.882812 L 68.390625 36.457031 L 68.332031 36.457031 C 67.5625 36.457031 66.964844 37.003906 66.964844 38.0625 Z M 66.964844 39.441406 "/>
<path style=" stroke:none;fill-rule:nonzero;fill:rgb(10.588235%,45.882353%,73.333333%);fill-opacity:1;" d="M 69.1875 36.601562 L 69.042969 36.171875 C 69.414062 36 69.8125 35.882812 70.296875 35.882812 C 71.234375 35.882812 71.777344 36.371094 71.777344 37.289062 L 71.777344 39.414062 L 71.292969 39.414062 L 71.292969 38.898438 C 71.066406 39.210938 70.636719 39.5 70.039062 39.5 C 69.386719 39.5 68.761719 39.125 68.761719 38.410156 C 68.761719 37.660156 69.355469 37.261719 70.238281 37.261719 C 70.695312 37.261719 71.007812 37.316406 71.292969 37.402344 L 71.292969 37.289062 C 71.292969 36.65625 70.921875 36.34375 70.265625 36.34375 C 69.839844 36.371094 69.527344 36.457031 69.1875 36.601562 Z M 69.269531 38.410156 C 69.269531 38.867188 69.671875 39.097656 70.15625 39.097656 C 70.78125 39.097656 71.320312 38.695312 71.320312 38.152344 L 71.320312 37.808594 C 71.066406 37.71875 70.722656 37.660156 70.296875 37.660156 C 69.613281 37.660156 69.269531 37.949219 69.269531 38.410156 Z M 69.269531 38.410156 "/>
<path style=" stroke:none;fill-rule:nonzero;fill:rgb(10.588235%,45.882353%,73.333333%);fill-opacity:1;" d="M 73.542969 38.4375 C 73.542969 38.867188 73.769531 39.011719 74.113281 39.011719 C 74.28125 39.011719 74.425781 38.980469 74.621094 38.898438 L 74.621094 39.355469 C 74.453125 39.441406 74.25 39.5 73.996094 39.5 C 73.429688 39.5 73.03125 39.210938 73.03125 38.523438 L 73.03125 36.429688 L 72.546875 36.429688 L 72.546875 35.96875 L 73.03125 35.96875 L 73.03125 34.910156 L 73.542969 34.910156 L 73.542969 35.96875 L 74.652344 35.96875 L 74.652344 36.429688 L 73.542969 36.429688 Z M 73.542969 38.4375 "/>
<path style=" stroke:none;fill-rule:nonzero;fill:rgb(10.588235%,45.882353%,73.333333%);fill-opacity:1;" d="M 76.984375 39.070312 C 77.472656 39.070312 77.785156 38.867188 78.066406 38.578125 L 78.382812 38.867188 C 78.039062 39.269531 77.613281 39.527344 76.957031 39.527344 C 76.019531 39.527344 75.222656 38.78125 75.222656 37.691406 C 75.222656 36.6875 75.933594 35.855469 76.875 35.855469 C 77.898438 35.855469 78.496094 36.6875 78.496094 37.691406 C 78.496094 37.746094 78.496094 37.808594 78.496094 37.863281 L 75.734375 37.863281 C 75.820312 38.636719 76.359375 39.070312 76.984375 39.070312 Z M 77.980469 37.492188 C 77.925781 36.859375 77.554688 36.3125 76.875 36.3125 C 76.277344 36.3125 75.820312 36.832031 75.734375 37.492188 Z M 77.980469 37.492188 "/>
<path style=" stroke:none;fill-rule:nonzero;fill:rgb(10.588235%,45.882353%,73.333333%);fill-opacity:1;" d="M 79.292969 39.441406 L 79.292969 38.722656 L 79.917969 38.722656 L 79.917969 39.441406 Z M 79.292969 39.441406 "/>
<path style=" stroke:none;fill-rule:nonzero;fill:rgb(10.588235%,45.882353%,73.333333%);fill-opacity:1;" d="M 83.679688 34.707031 L 83.679688 39.441406 L 83.136719 39.441406 L 83.136719 34.707031 Z M 83.679688 34.707031 "/>
<path style=" stroke:none;fill-rule:nonzero;fill:rgb(10.588235%,45.882353%,73.333333%);fill-opacity:1;" d="M 85.472656 39.441406 L 84.960938 39.441406 L 84.960938 35.941406 L 85.472656 35.941406 L 85.472656 36.542969 C 85.699219 36.171875 86.070312 35.855469 86.667969 35.855469 C 87.492188 35.855469 88.003906 36.429688 88.003906 37.261719 L 88.003906 39.441406 L 87.492188 39.441406 L 87.492188 37.402344 C 87.492188 36.742188 87.148438 36.34375 86.523438 36.34375 C 85.929688 36.34375 85.5 36.773438 85.5 37.433594 L 85.5 39.441406 Z M 85.472656 39.441406 "/>
<path style=" stroke:none;fill-rule:nonzero;fill:rgb(10.588235%,45.882353%,73.333333%);fill-opacity:1;" d="M 89.597656 39.441406 L 89.085938 39.441406 L 89.085938 35.941406 L 89.597656 35.941406 L 89.597656 36.542969 C 89.828125 36.171875 90.199219 35.855469 90.796875 35.855469 C 91.621094 35.855469 92.136719 36.429688 92.136719 37.261719 L 92.136719 39.441406 L 91.621094 39.441406 L 91.621094 37.402344 C 91.621094 36.742188 91.277344 36.34375 90.652344 36.34375 C 90.054688 36.34375 89.628906 36.773438 89.628906 37.433594 L 89.628906 39.441406 Z M 89.597656 39.441406 "/>
<path style=" stroke:none;fill-rule:nonzero;fill:rgb(10.588235%,45.882353%,73.333333%);fill-opacity:1;" d="M 94.78125 39.527344 C 93.757812 39.527344 92.988281 38.695312 92.988281 37.71875 C 92.988281 36.714844 93.757812 35.882812 94.808594 35.882812 C 95.835938 35.882812 96.605469 36.714844 96.605469 37.691406 C 96.605469 38.664062 95.835938 39.527344 94.78125 39.527344 Z M 94.78125 36.34375 C 94.042969 36.34375 93.503906 36.945312 93.503906 37.691406 C 93.503906 38.4375 94.042969 39.070312 94.78125 39.070312 C 95.523438 39.070312 96.0625 38.46875 96.0625 37.71875 C 96.089844 36.945312 95.523438 36.34375 94.78125 36.34375 Z M 94.78125 36.34375 "/>
<path style=" stroke:none;fill-rule:nonzero;fill:rgb(10.588235%,45.882353%,73.333333%);fill-opacity:1;" d="M 99.90625 35.941406 L 100.472656 35.941406 L 98.96875 39.46875 L 98.511719 39.46875 L 97 35.941406 L 97.570312 35.941406 L 98.738281 38.839844 Z M 99.90625 35.941406 "/>
<path style=" stroke:none;fill-rule:nonzero;fill:rgb(10.588235%,45.882353%,73.333333%);fill-opacity:1;" d="M 101.300781 36.601562 L 101.160156 36.171875 C 101.527344 36 101.925781 35.882812 102.414062 35.882812 C 103.351562 35.882812 103.890625 36.371094 103.890625 37.289062 L 103.890625 39.414062 L 103.40625 39.414062 L 103.40625 38.898438 C 103.179688 39.210938 102.753906 39.5 102.15625 39.5 C 101.5 39.5 100.875 39.125 100.875 38.410156 C 100.875 37.660156 101.46875 37.261719 102.355469 37.261719 C 102.808594 37.261719 103.125 37.316406 103.40625 37.402344 L 103.40625 37.289062 C 103.40625 36.65625 103.039062 36.34375 102.382812 36.34375 C 101.957031 36.371094 101.617188 36.457031 101.300781 36.601562 Z M 101.359375 38.410156 C 101.359375 38.867188 101.757812 39.097656 102.242188 39.097656 C 102.867188 39.097656 103.40625 38.695312 103.40625 38.152344 L 103.40625 37.808594 C 103.152344 37.71875 102.808594 37.660156 102.382812 37.660156 C 101.730469 37.660156 101.359375 37.949219 101.359375 38.410156 Z M 101.359375 38.410156 "/>
<path style=" stroke:none;fill-rule:nonzero;fill:rgb(10.588235%,45.882353%,73.333333%);fill-opacity:1;" d="M 105.65625 38.4375 C 105.65625 38.867188 105.886719 39.011719 106.226562 39.011719 C 106.398438 39.011719 106.539062 38.980469 106.738281 38.898438 L 106.738281 39.355469 C 106.566406 39.441406 106.371094 39.5 106.113281 39.5 C 105.542969 39.5 105.148438 39.210938 105.148438 38.523438 L 105.148438 36.429688 L 104.660156 36.429688 L 104.660156 35.96875 L 105.148438 35.96875 L 105.148438 34.910156 L 105.65625 34.910156 L 105.65625 35.96875 L 106.765625 35.96875 L 106.765625 36.429688 L 105.65625 36.429688 Z M 105.65625 38.4375 "/>
<path style=" stroke:none;fill-rule:nonzero;fill:rgb(10.588235%,45.882353%,73.333333%);fill-opacity:1;" d="M 109.074219 39.070312 C 109.558594 39.070312 109.875 38.867188 110.15625 38.578125 L 110.46875 38.867188 C 110.125 39.269531 109.699219 39.527344 109.046875 39.527344 C 108.105469 39.527344 107.308594 38.78125 107.308594 37.691406 C 107.308594 36.6875 108.019531 35.855469 108.960938 35.855469 C 109.984375 35.855469 110.582031 36.6875 110.582031 37.691406 C 110.582031 37.746094 110.582031 37.808594 110.582031 37.863281 L 107.824219 37.863281 C 107.933594 38.636719 108.476562 39.070312 109.074219 39.070312 Z M 110.097656 37.492188 C 110.042969 36.859375 109.671875 36.3125 108.988281 36.3125 C 108.390625 36.3125 107.933594 36.832031 107.851562 37.492188 Z M 110.097656 37.492188 "/>
<path style=" stroke:none;fill-rule:nonzero;fill:rgb(10.588235%,45.882353%,73.333333%);fill-opacity:1;" d="M 111.410156 39.441406 L 111.410156 38.722656 L 112.035156 38.722656 L 112.035156 39.441406 Z M 111.410156 39.441406 "/>
<path style=" stroke:none;fill-rule:nonzero;fill:rgb(10.588235%,45.882353%,73.333333%);fill-opacity:1;" d="M 119.550781 39.441406 L 118.984375 39.441406 L 118.441406 38.179688 L 115.878906 38.179688 L 115.308594 39.441406 L 114.769531 39.441406 L 116.90625 34.679688 L 117.386719 34.679688 Z M 117.160156 35.3125 L 116.078125 37.71875 L 118.210938 37.71875 Z M 117.160156 35.3125 "/>
<path style=" stroke:none;fill-rule:nonzero;fill:rgb(10.588235%,45.882353%,73.333333%);fill-opacity:1;" d="M 121.800781 39.527344 C 120.777344 39.527344 120.035156 38.695312 120.035156 37.71875 C 120.035156 36.714844 120.804688 35.882812 121.800781 35.882812 C 122.457031 35.882812 122.855469 36.171875 123.195312 36.515625 L 122.855469 36.886719 C 122.570312 36.601562 122.285156 36.371094 121.800781 36.371094 C 121.089844 36.371094 120.546875 36.972656 120.546875 37.71875 C 120.546875 38.496094 121.089844 39.097656 121.828125 39.097656 C 122.285156 39.097656 122.628906 38.867188 122.882812 38.578125 L 123.226562 38.898438 C 122.855469 39.242188 122.457031 39.527344 121.800781 39.527344 Z M 121.800781 39.527344 "/>
<path style=" stroke:none;fill-rule:nonzero;fill:rgb(10.588235%,45.882353%,73.333333%);fill-opacity:1;" d="M 125.53125 39.527344 C 124.503906 39.527344 123.765625 38.695312 123.765625 37.71875 C 123.765625 36.714844 124.535156 35.882812 125.53125 35.882812 C 126.1875 35.882812 126.585938 36.171875 126.925781 36.515625 L 126.585938 36.886719 C 126.296875 36.601562 126.015625 36.371094 125.53125 36.371094 C 124.820312 36.371094 124.277344 36.972656 124.277344 37.71875 C 124.277344 38.496094 124.820312 39.097656 125.558594 39.097656 C 126.015625 39.097656 126.355469 38.867188 126.613281 38.578125 L 126.957031 38.898438 C 126.585938 39.242188 126.1875 39.527344 125.53125 39.527344 Z M 125.53125 39.527344 "/>
<path style=" stroke:none;fill-rule:nonzero;fill:rgb(10.588235%,45.882353%,73.333333%);fill-opacity:1;" d="M 129.203125 39.070312 C 129.6875 39.070312 130 38.867188 130.285156 38.578125 L 130.597656 38.867188 C 130.257812 39.269531 129.832031 39.527344 129.175781 39.527344 C 128.234375 39.527344 127.441406 38.78125 127.441406 37.691406 C 127.441406 36.6875 128.152344 35.855469 129.089844 35.855469 C 130.113281 35.855469 130.710938 36.6875 130.710938 37.691406 C 130.710938 37.746094 130.710938 37.808594 130.710938 37.863281 L 127.953125 37.863281 C 128.066406 38.636719 128.605469 39.070312 129.203125 39.070312 Z M 130.226562 37.492188 C 130.171875 36.859375 129.800781 36.3125 129.117188 36.3125 C 128.523438 36.3125 128.066406 36.832031 127.980469 37.492188 Z M 130.226562 37.492188 "/>
<path style=" stroke:none;fill-rule:nonzero;fill:rgb(10.588235%,45.882353%,73.333333%);fill-opacity:1;" d="M 131.710938 39.441406 L 131.710938 34.503906 L 132.222656 34.503906 L 132.222656 39.441406 Z M 131.710938 39.441406 "/>
<path style=" stroke:none;fill-rule:nonzero;fill:rgb(10.588235%,45.882353%,73.333333%);fill-opacity:1;" d="M 134.953125 39.070312 C 135.4375 39.070312 135.75 38.867188 136.039062 38.578125 L 136.351562 38.867188 C 136.007812 39.269531 135.582031 39.527344 134.925781 39.527344 C 133.988281 39.527344 133.191406 38.78125 133.191406 37.691406 C 133.191406 36.6875 133.902344 35.855469 134.839844 35.855469 C 135.863281 35.855469 136.464844 36.6875 136.464844 37.691406 C 136.464844 37.746094 136.464844 37.808594 136.464844 37.863281 L 133.730469 37.863281 C 133.789062 38.636719 134.328125 39.070312 134.953125 39.070312 Z M 135.949219 37.492188 C 135.894531 36.859375 135.523438 36.3125 134.839844 36.3125 C 134.246094 36.3125 133.789062 36.832031 133.703125 37.492188 Z M 135.949219 37.492188 "/>
<path style=" stroke:none;fill-rule:nonzero;fill:rgb(10.588235%,45.882353%,73.333333%);fill-opacity:1;" d="M 137.886719 39.441406 L 137.375 39.441406 L 137.375 35.941406 L 137.886719 35.941406 L 137.886719 36.859375 C 138.144531 36.285156 138.65625 35.855469 139.308594 35.882812 L 139.308594 36.457031 L 139.28125 36.457031 C 138.515625 36.457031 137.917969 37.003906 137.917969 38.0625 L 137.917969 39.441406 Z M 137.886719 39.441406 "/>
<path style=" stroke:none;fill-rule:nonzero;fill:rgb(10.588235%,45.882353%,73.333333%);fill-opacity:1;" d="M 140.136719 36.601562 L 139.996094 36.171875 C 140.367188 36 140.761719 35.882812 141.246094 35.882812 C 142.1875 35.882812 142.730469 36.371094 142.730469 37.289062 L 142.730469 39.414062 L 142.246094 39.414062 L 142.246094 38.898438 C 142.015625 39.210938 141.585938 39.5 140.992188 39.5 C 140.335938 39.5 139.710938 39.125 139.710938 38.410156 C 139.710938 37.660156 140.308594 37.261719 141.1875 37.261719 C 141.644531 37.261719 141.957031 37.316406 142.246094 37.402344 L 142.246094 37.289062 C 142.246094 36.65625 141.875 36.34375 141.21875 36.34375 C 140.761719 36.371094 140.453125 36.457031 140.136719 36.601562 Z M 140.191406 38.410156 C 140.191406 38.867188 140.589844 39.097656 141.078125 39.097656 C 141.703125 39.097656 142.246094 38.695312 142.246094 38.152344 L 142.246094 37.808594 C 141.988281 37.71875 141.644531 37.660156 141.21875 37.660156 C 140.5625 37.660156 140.191406 37.949219 140.191406 38.410156 Z M 140.191406 38.410156 "/>
<path style=" stroke:none;fill-rule:nonzero;fill:rgb(10.588235%,45.882353%,73.333333%);fill-opacity:1;" d="M 144.464844 38.4375 C 144.464844 38.867188 144.691406 39.011719 145.03125 39.011719 C 145.207031 39.011719 145.347656 38.980469 145.546875 38.898438 L 145.546875 39.355469 C 145.375 39.441406 145.179688 39.5 144.917969 39.5 C 144.351562 39.5 143.949219 39.210938 143.949219 38.523438 L 143.949219 36.429688 L 143.46875 36.429688 L 143.46875 35.96875 L 143.949219 35.96875 L 143.949219 34.910156 L 144.464844 34.910156 L 144.464844 35.96875 L 145.574219 35.96875 L 145.574219 36.429688 L 144.464844 36.429688 Z M 144.464844 38.4375 "/>
<path style=" stroke:none;fill-rule:nonzero;fill:rgb(10.588235%,45.882353%,73.333333%);fill-opacity:1;" d="M 147.910156 39.070312 C 148.394531 39.070312 148.707031 38.867188 148.992188 38.578125 L 149.304688 38.867188 C 148.964844 39.269531 148.539062 39.527344 147.878906 39.527344 C 146.941406 39.527344 146.144531 38.78125 146.144531 37.691406 C 146.144531 36.6875 146.855469 35.855469 147.796875 35.855469 C 148.820312 35.855469 149.417969 36.6875 149.417969 37.691406 C 149.417969 37.746094 149.417969 37.808594 149.417969 37.863281 L 146.65625 37.863281 C 146.769531 38.636719 147.308594 39.070312 147.910156 39.070312 Z M 148.9375 37.492188 C 148.875 36.859375 148.507812 36.3125 147.824219 36.3125 C 147.226562 36.3125 146.769531 36.832031 146.683594 37.492188 Z M 148.9375 37.492188 "/>
<path style=" stroke:none;fill-rule:nonzero;fill:rgb(10.588235%,45.882353%,73.333333%);fill-opacity:1;" d="M 150.214844 39.441406 L 150.214844 38.722656 L 150.84375 38.722656 L 150.84375 39.441406 Z M 150.214844 39.441406 "/>
<path style=" stroke:none;fill-rule:nonzero;fill:rgb(46.666667%,47.058824%,48.235294%);fill-opacity:1;" d="M 114.65625 21.882812 L 114.65625 21.023438 L 113.886719 21.023438 L 113.886719 21.882812 L 112.691406 21.882812 C 111.609375 21.882812 111.492188 21.164062 111.492188 20.847656 C 111.492188 20.246094 111.949219 19.847656 112.660156 19.847656 C 112.832031 19.847656 113.003906 19.875 113.089844 19.902344 L 113.289062 19.296875 C 113.175781 19.269531 112.859375 19.214844 112.605469 19.214844 C 111.464844 19.214844 110.726562 19.847656 110.726562 20.792969 C 110.726562 21.824219 111.492188 22.109375 111.523438 22.109375 L 111.722656 22.167969 L 111.523438 22.226562 C 110.898438 22.425781 110.46875 23.058594 110.46875 23.804688 C 110.46875 24.867188 111.351562 25.609375 112.578125 25.609375 C 113.886719 25.609375 114.683594 24.8125 114.683594 23.460938 L 114.683594 22.574219 L 115.511719 22.574219 L 115.511719 21.914062 L 114.65625 21.914062 Z M 113.800781 23.433594 C 113.800781 24.347656 113.34375 24.839844 112.519531 24.839844 C 111.78125 24.839844 111.265625 24.378906 111.265625 23.746094 C 111.265625 23.058594 111.78125 22.660156 112.632812 22.628906 L 113.828125 22.628906 Z M 113.800781 23.433594 "/>
</g>
</svg>
